# xmcd CD database file
#
# Track frame offsets:
#	150
#	16497
#	32739
#	52613
#	65113
#	84492
#	103367
#	126964
#	140231
#	144884
#	172382
#	182878
#	203461
#	224303
#	257379
#
# Disc length: 3537 seconds
#
# Revision: 1
# Processed by: cddbd v1.5.2PL0 Copyright (c) Steve Scherf et al.
# Submitted via: CDex 1.51
#
DISCID=df0dcf0f
DTITLE=Klazzbrothers and Cuba Percussion - Jazz Meets Cuba
DYEAR=2003
DGENRE=Jazz
TTITLE0=Summertime (George Gershwin)
TTITLE1=Mambo Influenciado (Chucho Valdez)
TTITLE2=In A Sentimental Mood (Duke Ellington)
TTITLE3=Conception (Alexis Herrera Estevez)
TTITLE4=Samba Zamba (Tobias Forster)
TTITLE5=Los Amigos (Frank Emilio)
TTITLE6=Au Privave (Charlie Parker)
TTITLE7=So What (Miles Davis)
TTITLE8=Dynamita (Alexis Herrera Estevez)
TTITLE9=Girl From Ipanema (A. C. Jobim)
TTITLE10=Konga Solo (Elio Rodriguez Luis)
TTITLE11=Mondongo (Frank Emilio)
TTITLE12=Elegia (Tobias Forster)
TTITLE13=Take Five (Paul Desmond)
TTITLE14=Summertime - Reprise (George Gershwin)
EXTD=YEAR: 2003
EXTT0=
EXTT1=
EXTT2=
EXTT3=
EXTT4=
EXTT5=
EXTT6=
EXTT7=
EXTT8=
EXTT9=
EXTT10=
EXTT11=
EXTT12=
EXTT13=
EXTT14=
PLAYORDER=
